#!OML:ASF F:\VICON\USERDATA\INSTALL\Justin_Nancy\Justin_Nancy.ASF
:FULLY-SPECIFIED
:DEGREES
16
root 10.3493 16.9993 -22.4901 1.48152 -9.58283 -4.75419
lowerback 5.26758 1.79952 3.59419
upperback -0.408166 2.74621 3.65242
thorax -3.38954 1.33124 1.53508
lowerneck -15.0341 -4.71453 -8.99741
upperneck 22.5508 -5.95527 6.50746
head 10.1401 -2.79777 3.00754
rclavicle -1.74434e-014 -2.70347e-014
rhumerus -21.8554 -5.75032 -79.7702
rradius 41.16
rwrist 1.55336
rhand -18.0376 9.30365
rfingers 7.12502
rthumb 8.234 -20.5159
lclavicle -1.74434e-014 -2.70347e-014
lhumerus -42.3295 24.0857 74.4963
lradius 18.0188
lwrist -16.9035
lhand -12.9034 25.811
lfingers 7.12502
lthumb 13.1863 55.374
rfemur 18.7277 4.86386 31.906
rtibia 18.9757
rfoot -7.77915 7.42421
rtoes -2.03941
lfemur -33.3271 1.70724 -16.0271
ltibia 24.7299
lfoot -10.0117 6.75156
ltoes -9.96257
17
root 10.33 17.0056 -22.1984 1.3026 -9.88526 -4.65729
lowerback 5.20593 1.9106 3.61974
upperback 0.20347 2.85681 3.62629
thorax -2.71911 1.39596 1.49736
lowerneck -17.3784 -4.9701 -9.15572
upperneck 23.1553 -6.10605 6.57853
head 10.8326 -2.82576 3.01206
rclavicle 1.70955e-014 4.05521e-014
rhumerus -20.639 -6.2751 -79.6751
rradius 41.0088
rwrist 1.13225
rhand -18.1289 9.38105
rfingers 7.12502
rthumb 8.1459 -20.4419
lclavicle 1.70955e-014 4.05521e-014
lhumerus -41.4987 25.9269 73.8731
lradius 17.0422
lwrist -18.5354
lhand -13.2861 24.787
lfingers 7.12502
lthumb 12.8174 54.3735
rfemur 18.5 4.78212 31.4441
rtibia 21.0155
rfoot -5.59439 8.65722
rtoes -2.02741
lfemur -33.0506 1.63598 -16.2597
ltibia 26.0735
lfoot -7.82166 5.9154
ltoes -3.99774
18
root 10.3103 17.0269 -21.9116 1.32166 -10.1283 -4.57238
lowerback 5.04588 1.95585 3.41067
upperback -0.535244 2.93735 3.67357
thorax -3.40709 1.42952 1.64974
lowerneck -14.788 -4.59373 -9.30639
upperneck 22.8358 -5.7941 6.70488
head 10.1975 -2.73453 3.16023
rclavicle 1.30701e-014 0
rhumerus -22.3978 -5.98157 -79.3131
rradius 41.1871
rwrist 0.519738
rhand -18.0531 9.35622
rfingers 7.12502
rthumb 8.21911 -20.4639
lclavicle 1.30701e-014 0
lhumerus -43.4974 26.1719 72.665
lradius 16.7381
lwrist -19.4888
lhand -13.1977 25.9371
lfingers 7.12502
lthumb 12.9026 55.5182
rfemur 17.7496 4.7254 30.9628
rtibia 23.4342
rfoot -2.74319 9.72201
rtoes -1.10322
lfemur -33.0292 1.46602 -16.3527
ltibia 27.2409
lfoot -5.5784 5.11564
ltoes -5.77829
19
root 10.2923 17.041 -21.6355 1.11339 -9.99898 -4.18091
lowerback 5.27128 1.94766 3.08845
upperback -0.971258 2.93614 3.48545
thorax -3.9924 1.42646 1.61997
lowerneck -13.4637 -4.65364 -9.09022
upperneck 22.6133 -6.00848 6.55689
head 9.87224 -2.85819 3.05747
rclavicle 3.5657e-015 6.12257e-014
rhumerus -23.6019 -6.10372 -79.1395
rradius 41.303
rwrist 0.0574246
rhand -18.2049 9.27347
rfingers 7.12502
rthumb 8.0726 -20.5524
lclavicle 3.5657e-015 6.12257e-014
lhumerus -44.8099 26.6008 71.3523
lradius 16.3318
lwrist -20.8206
lhand -12.6408 25.3398
lfingers 7.12502
lthumb 13.4394 54.8863
rfemur 16.9375 4.33702 30.1885
rtibia 26.0785
rfoot 0.992076 10.5457
rtoes 0.359644
lfemur -32.8347 1.13382 -16.759
ltibia 28.2481
lfoot -3.92515 4.71136
ltoes -8.39327
20
root 10.276 17.0536 -21.3676 0.860307 -9.64723 -3.53758
lowerback 5.60667 1.85169 2.56453
upperback -1.10628 2.78695 3.23396
thorax -4.33232 1.35887 1.65168
lowerneck -13.5258 -4.72783 -9.09349
upperneck 22.9345 -6.14248 6.62365
head 10.013 -2.9132 3.06657
rclavicle 2.02605e-014 2.3059e-014
rhumerus -24.0085 -6.63651 -79.0618
rradius 41.2044
rwrist 0.0710784
rhand -18.1333 9.56901
rfingers 7.12502
rthumb 8.14171 -20.2541
lclavicle 2.02605e-014 2.3059e-014
lhumerus -45.3012 27.4904 70.2051
lradius 15.7077
lwrist -22.5222
lhand -12.3056 25.0517
lfingers 7.12502
lthumb 13.7625 54.5766
rfemur 15.7352 3.76511 29.1227
rtibia 29.0783
rfoot 5.42278 10.9546
rtoes 2.7661
lfemur -32.4298 0.637182 -17.4556
ltibia 29.0427
lfoot -2.8264 4.15744
ltoes -6.41189
21
root 10.2593 17.092 -21.0302 0.282444 -10.9519 -2.22062
lowerback 5.1788 2.30381 1.42328
upperback -0.901814 3.2695 2.77333
thorax -3.91874 1.62389 1.7882
lowerneck -13.4489 -4.72185 -9.10107
upperneck 23.1094 -6.19758 6.80968
head 10.0718 -2.92131 3.13031
rclavicle -2.32933e-014 -7.95139e-016
rhumerus -24.4952 -7.13684 -79.065
rradius 41.1036
rwrist 0.197665
rhand -18.2199 9.34436
rfingers 7.12502
rthumb 8.05813 -20.482
lclavicle -2.32933e-014 -7.95139e-016
lhumerus -45.6197 28.6381 68.8437
lradius 14.8255
lwrist -24.701
lhand -11.9621 25.6188
lfingers 7.12502
lthumb 14.0935 55.1209
rfemur 14.7209 4.58123 27.1318
rtibia 32.3911
rfoot 9.69108 11.8202
rtoes 3.72844
lfemur -31.2075 1.15162 -18.7615
ltibia 29.7093
lfoot -2.19963 3.8256
ltoes -1.47235
22
root 10.2302 17.1091 -20.7381 -0.232505 -11.3655 -1.2184
lowerback 5.06985 2.45702 0.43392
upperback -0.847978 3.39601 2.48425
thorax -3.84372 1.70638 2.03688
lowerneck -13.129 -4.68635 -9.29623
upperneck 23.208 -6.19638 7.04475
head 10.06 -2.91956 3.25379
rclavicle -4.72735e-014 -1.11319e-014
rhumerus -25.0507 -7.58301 -78.9825
rradius 40.8715
rwrist 0.460791
rhand -18.3683 9.11175
rfingers 7.12502
rthumb 7.91492 -20.7201
lclavicle -4.72735e-014 -1.11319e-014
lhumerus -46.0958 29.2285 67.9057
lradius 14.2661
lwrist -25.8549
lhand -12.0442 26.0098
lfingers 7.12502
lthumb 14.0144 55.5174
rfemur 13.3478 4.81947 25.7073
rtibia 35.8987
rfoot 13.4075 12.2076
rtoes 5.50652
lfemur -30.3574 1.78186 -19.956
ltibia 30.3701
lfoot -1.31026 2.97179
ltoes -7.31883
23
root 10.1979 17.113 -20.4767 -0.559953 -11.3361 -0.67112
lowerback 5.1786 2.45131 -0.105449
upperback -0.78225 3.34788 2.31014
thorax -3.85555 1.69219 2.15942
lowerneck -13.1043 -4.67702 -9.53022
upperneck 23.2111 -6.19807 7.31046
head 10.0735 -2.91249 3.38875
rclavicle -2.09966e-014 1.35174e-014
rhumerus -25.2825 -8.08039 -78.931
rradius 40.4085
rwrist 0.867559
rhand -18.4266 9.39377
rfingers 7.12502
rthumb 7.85858 -20.4402
lclavicle -2.09966e-014 1.35174e-014
lhumerus -46.3489 29.4424 67.5824
lradius 14.2722
lwrist -26.0731
lhand -12.6604 25.5498
lfingers 7.12502
lthumb 13.4206 55.0975
rfemur 11.6347 4.78289 24.937
rtibia 39.4989
rfoot 17.0104 11.8742
rtoes 9.43986
lfemur -29.599 2.44062 -20.7669
ltibia 31.1206
lfoot -0.778436 2.49335
ltoes -0.854876
24
root 10.1772 17.1243 -20.2143 -0.749791 -11.2832 -0.263067
lowerback 5.24417 2.40762 -0.333879
upperback -0.742536 3.26765 2.12138
thorax -3.84947 1.65482 2.09727
lowerneck -13.1824 -4.62171 -9.51977
upperneck 23.1688 -6.11426 7.31882
head 10.0648 -2.87022 3.39963
rclavicle -1.07251e-014 -3.18055e-015
rhumerus -25.6666 -8.43986 -78.9267
rradius 40.1466
rwrist 1.078
rhand -17.9958 9.87868
rfingers 7.12502
rthumb 8.27442 -19.9393
lclavicle -1.07251e-014 -3.18055e-015
lhumerus -46.4733 30.0767 66.9352
lradius 14.1575
lwrist -26.8965
lhand -13.0242 24.2176
lfingers 7.12502
lthumb 13.0699 53.7881
rfemur 9.63679 4.50133 24.143
rtibia 43.2663
rfoot 20.3308 11.9531
rtoes 11.4256
lfemur -28.8807 3.05596 -21.483
ltibia 31.8691
lfoot -1.24552 1.92703
ltoes 0.867165
